<?xml version='1.0' encoding='utf-8'?>
<svg width="404.86mm" height="204.60mm" viewBox="0.0 0.0 404.86 204.60" xmlns="http://www.w3.org/2000/svg" xmlns:dc="http://purl.org/dc/elements/1.1/" xmlns:cc="http://creativecommons.org/ns#" xmlns:rdf="http://www.w3.org/1999/02/22-rdf-syntax-ns#" xmlns:svg="http://www.w3.org/2000/svg" xmlns:xlink="http://www.w3.org/1999/xlink" xmlns:inkscape="http://www.inkscape.org/namespaces/inkscape">
<!--
RoundedBox - Box with vertical edges rounded



Default: edge_style = f Finger Joint:
![Finger Joint](static/samples/RoundedBox-2.jpg)

Alternative: edge_style = h Edge (parallel Finger Joint Holes):
![Finger Joint Holes](static/samples/RoundedBox-3.jpg)

With lid:



Created with Boxes.py (https://festi.info/boxes.py)
Creation date: 2023-06-22 09:18:36
Command line (remove spaces between dashes): boxes RoundedBox - -sh=90 - -x=140 - -y=80 - -top=closed - -thickness=4.0
Url: http://festi.info/boxes.py/RoundedBox?FingerJoint_angle=90.0&FingerJoint_style=rectangular&FingerJoint_surroundingspaces=2.0&FingerJoint_bottom_lip=0.0&FingerJoint_edge_width=1.0&FingerJoint_extra_length=0.0&FingerJoint_finger=2.0&FingerJoint_play=0.0&FingerJoint_space=2.0&FingerJoint_width=1.0&DoveTail_angle=50&DoveTail_depth=1.5&DoveTail_radius=0.2&DoveTail_size=3&Flex_stretch=1.05&Flex_connection=1.0&Flex_distance=0.5&Flex_width=5.0&sh=90&x=140&y=80&outside=0&outside=1&radius=15&wallpieces=1&edge_style=f&top=closed&thickness=4.0&format=svg&tabs=0.0&qr_code=0&debug=0&labels=0&labels=1&reference=100&inner_corners=loop&burn=0.1&language=de&render=1
Url short: http://festi.info/boxes.py/RoundedBox?sh=90&x=140&y=80&top=closed&thickness=4.0
SettingsUrl: http://festi.info/boxes.py/RoundedBox?FingerJoint_angle=90.0&FingerJoint_style=rectangular&FingerJoint_surroundingspaces=2.0&FingerJoint_bottom_lip=0.0&FingerJoint_edge_width=1.0&FingerJoint_extra_length=0.0&FingerJoint_finger=2.0&FingerJoint_play=0.0&FingerJoint_space=2.0&FingerJoint_width=1.0&DoveTail_angle=50&DoveTail_depth=1.5&DoveTail_radius=0.2&DoveTail_size=3&Flex_stretch=1.05&Flex_connection=1.0&Flex_distance=0.5&Flex_width=5.0&sh=90&x=140&y=80&outside=0&outside=1&radius=15&wallpieces=1&edge_style=f&top=closed&thickness=4.0&format=svg&tabs=0.0&qr_code=0&debug=0&labels=0&labels=1&reference=100&inner_corners=loop&burn=0.1&language=de
SettingsUrl short: http://festi.info/boxes.py/RoundedBox?sh=90&x=140&y=80&top=closed&thickness=4.0
-->
<title>RoundedBox</title>
<metadata>
<rdf:RDF><cc:Work>
<dc:title>FlexBox - RoundedBox</dc:title>
<dc:date>2023-06-22 09:18:36</dc:date>
<dc:source>http://festi.info/boxes.py/RoundedBox?FingerJoint_angle=90.0&amp;FingerJoint_style=rectangular&amp;FingerJoint_surroundingspaces=2.0&amp;FingerJoint_bottom_lip=0.0&amp;FingerJoint_edge_width=1.0&amp;FingerJoint_extra_length=0.0&amp;FingerJoint_finger=2.0&amp;FingerJoint_play=0.0&amp;FingerJoint_space=2.0&amp;FingerJoint_width=1.0&amp;DoveTail_angle=50&amp;DoveTail_depth=1.5&amp;DoveTail_radius=0.2&amp;DoveTail_size=3&amp;Flex_stretch=1.05&amp;Flex_connection=1.0&amp;Flex_distance=0.5&amp;Flex_width=5.0&amp;sh=90&amp;x=140&amp;y=80&amp;outside=0&amp;outside=1&amp;radius=15&amp;wallpieces=1&amp;edge_style=f&amp;top=closed&amp;thickness=4.0&amp;format=svg&amp;tabs=0.0&amp;qr_code=0&amp;debug=0&amp;labels=0&amp;labels=1&amp;reference=100&amp;inner_corners=loop&amp;burn=0.1&amp;language=de&amp;render=1</dc:source>
<dc:source>http://festi.info/boxes.py/RoundedBox?sh=90&amp;x=140&amp;y=80&amp;top=closed&amp;thickness=4.0</dc:source>
<dc:description>Box with vertical edges rounded


Default: edge_style = f Finger Joint:
![Finger Joint](static/samples/RoundedBox-2.jpg)

Alternative: edge_style = h Edge (parallel Finger Joint Holes):
![Finger Joint Holes](static/samples/RoundedBox-3.jpg)

With lid:


Created with Boxes.py (https://festi.info/boxes.py)
Command line: boxes RoundedBox --FingerJoint_angle=90.0 --FingerJoint_style=rectangular --FingerJoint_surroundingspaces=2.0 --FingerJoint_bottom_lip=0.0 --FingerJoint_edge_width=1.0 --FingerJoint_extra_length=0.0 --FingerJoint_finger=2.0 --FingerJoint_play=0.0 --FingerJoint_space=2.0 --FingerJoint_width=1.0 --DoveTail_angle=50 --DoveTail_depth=1.5 --DoveTail_radius=0.2 --DoveTail_size=3 --Flex_stretch=1.05 --Flex_connection=1.0 --Flex_distance=0.5 --Flex_width=5.0 --sh=90 --x=140 --y=80 --outside=0 --outside=1 --radius=15 --wallpieces=1 --edge_style=f --top=closed --thickness=4.0 --format=svg --tabs=0.0 --qr_code=0 --debug=0 --labels=0 --labels=1 --reference=100 --inner_corners=loop --burn=0.1
Command line short: boxes RoundedBox --sh=90 --x=140 --y=80 --top=closed --thickness=4.0
Url: http://festi.info/boxes.py/RoundedBox?FingerJoint_angle=90.0&amp;FingerJoint_style=rectangular&amp;FingerJoint_surroundingspaces=2.0&amp;FingerJoint_bottom_lip=0.0&amp;FingerJoint_edge_width=1.0&amp;FingerJoint_extra_length=0.0&amp;FingerJoint_finger=2.0&amp;FingerJoint_play=0.0&amp;FingerJoint_space=2.0&amp;FingerJoint_width=1.0&amp;DoveTail_angle=50&amp;DoveTail_depth=1.5&amp;DoveTail_radius=0.2&amp;DoveTail_size=3&amp;Flex_stretch=1.05&amp;Flex_connection=1.0&amp;Flex_distance=0.5&amp;Flex_width=5.0&amp;sh=90&amp;x=140&amp;y=80&amp;outside=0&amp;outside=1&amp;radius=15&amp;wallpieces=1&amp;edge_style=f&amp;top=closed&amp;thickness=4.0&amp;format=svg&amp;tabs=0.0&amp;qr_code=0&amp;debug=0&amp;labels=0&amp;labels=1&amp;reference=100&amp;inner_corners=loop&amp;burn=0.1&amp;language=de&amp;render=1
Url short: http://festi.info/boxes.py/RoundedBox?sh=90&amp;x=140&amp;y=80&amp;top=closed&amp;thickness=4.0
SettingsUrl: http://festi.info/boxes.py/RoundedBox?FingerJoint_angle=90.0&amp;FingerJoint_style=rectangular&amp;FingerJoint_surroundingspaces=2.0&amp;FingerJoint_bottom_lip=0.0&amp;FingerJoint_edge_width=1.0&amp;FingerJoint_extra_length=0.0&amp;FingerJoint_finger=2.0&amp;FingerJoint_play=0.0&amp;FingerJoint_space=2.0&amp;FingerJoint_width=1.0&amp;DoveTail_angle=50&amp;DoveTail_depth=1.5&amp;DoveTail_radius=0.2&amp;DoveTail_size=3&amp;Flex_stretch=1.05&amp;Flex_connection=1.0&amp;Flex_distance=0.5&amp;Flex_width=5.0&amp;sh=90&amp;x=140&amp;y=80&amp;outside=0&amp;outside=1&amp;radius=15&amp;wallpieces=1&amp;edge_style=f&amp;top=closed&amp;thickness=4.0&amp;format=svg&amp;tabs=0.0&amp;qr_code=0&amp;debug=0&amp;labels=0&amp;labels=1&amp;reference=100&amp;inner_corners=loop&amp;burn=0.1&amp;language=de
SettingsUrl short: http://festi.info/boxes.py/RoundedBox?sh=90&amp;x=140&amp;y=80&amp;top=closed&amp;thickness=4.0
</dc:description>
</cc:Work></rdf:RDF></metadata>
<g id="p-0" style="fill:none;stroke-linecap:round;stroke-linejoin:round;">
  <path d="M 10.400 194.600 H 110.400 V 184.600 H 10.400 V 194.600 Z" stroke="rgb(0,0,0)" stroke-width="0.20" />
  <text transform="matrix( 1.000 0.000 0.000 1.000 60.400 185.600 )" style="font-family: sans-serif ; font-weight: normal; font-style: normal; fill: rgb(255,0,0)" font-size="8px" text-anchor="middle" dominant-baseline="hanging">100mm, burn:0.10mm</text>
</g>
<g id="p-1" style="fill:none;stroke-linecap:round;stroke-linejoin:round;">
  <path d="M 29.400 178.400 H 42.800 C 42.900 178.400 42.800 178.300 42.800 178.400 V 182.300 C 42.800 182.355 42.845 182.400 42.900 182.400 H 50.900 C 50.955 182.400 51.000 182.355 51.000 182.300 V 178.400 C 51.000 178.300 50.900 178.400 51.000 178.400 H 58.800 C 58.900 178.400 58.800 178.300 58.800 178.400 V 182.300 C 58.800 182.355 58.845 182.400 58.900 182.400 H 66.900 C 66.955 182.400 67.000 182.355 67.000 182.300 V 178.400 C 67.000 178.300 66.900 178.400 67.000 178.400 H 80.400 H 93.800 C 93.900 178.400 93.800 178.300 93.800 178.400 V 182.300 C 93.800 182.355 93.845 182.400 93.900 182.400 H 101.900 C 101.955 182.400 102.000 182.355 102.000 182.300 V 178.400 C 102.000 178.300 101.900 178.400 102.000 178.400 H 109.800 C 109.900 178.400 109.800 178.300 109.800 178.400 V 182.300 C 109.800 182.355 109.845 182.400 109.900 182.400 H 117.900 C 117.955 182.400 118.000 182.355 118.000 182.300 V 178.400 C 118.000 178.300 117.900 178.400 118.000 178.400 H 131.400 C 134.051 178.400 136.655 177.702 138.950 176.377 C 141.245 175.052 143.152 173.145 144.477 170.850 C 145.802 168.555 146.500 165.951 146.500 163.300 V 154.400 C 146.500 154.300 146.400 154.400 146.500 154.400 H 150.400 C 150.455 154.400 150.500 154.355 150.500 154.300 V 146.300 C 150.500 146.245 150.455 146.200 150.400 146.200 H 146.500 C 146.400 146.200 146.500 146.300 146.500 146.200 V 138.400 C 146.500 138.300 146.400 138.400 146.500 138.400 H 150.400 C 150.455 138.400 150.500 138.355 150.500 138.300 V 130.300 C 150.500 130.245 150.455 130.200 150.400 130.200 H 146.500 C 146.400 130.200 146.500 130.300 146.500 130.200 V 121.300 C 146.500 118.649 145.802 116.045 144.477 113.750 C 143.152 111.455 141.245 109.548 138.950 108.223 C 136.655 106.898 134.051 106.200 131.400 106.200 H 116.500 C 116.400 106.200 116.500 106.300 116.500 106.200 V 102.300 C 116.500 102.245 116.455 102.200 116.400 102.200 H 108.400 C 108.345 102.200 108.300 102.245 108.300 102.300 V 106.200 C 108.300 106.300 108.400 106.200 108.300 106.200 H 100.500 C 100.400 106.200 100.500 106.300 100.500 106.200 V 102.300 C 100.500 102.245 100.455 102.200 100.400 102.200 H 92.400 C 92.345 102.200 92.300 102.245 92.300 102.300 V 106.200 C 92.300 106.300 92.400 106.200 92.300 106.200 H 84.500 C 84.400 106.200 84.500 106.300 84.500 106.200 V 102.300 C 84.500 102.245 84.455 102.200 84.400 102.200 H 76.400 C 76.345 102.200 76.300 102.245 76.300 102.300 V 106.200 C 76.300 106.300 76.400 106.200 76.300 106.200 H 68.500 C 68.400 106.200 68.500 106.300 68.500 106.200 V 102.300 C 68.500 102.245 68.455 102.200 68.400 102.200 H 60.400 C 60.345 102.200 60.300 102.245 60.300 102.300 V 106.200 C 60.300 106.300 60.400 106.200 60.300 106.200 H 52.500 C 52.400 106.200 52.500 106.300 52.500 106.200 V 102.300 C 52.500 102.245 52.455 102.200 52.400 102.200 H 44.400 C 44.345 102.200 44.300 102.245 44.300 102.300 V 106.200 C 44.300 106.300 44.400 106.200 44.300 106.200 H 29.400 C 26.749 106.200 24.145 106.898 21.850 108.223 C 19.555 109.548 17.648 111.455 16.323 113.750 C 14.998 116.045 14.300 118.649 14.300 121.300 V 130.200 C 14.300 130.300 14.400 130.200 14.300 130.200 H 10.400 C 10.345 130.200 10.300 130.245 10.300 130.300 V 138.300 C 10.300 138.355 10.345 138.400 10.400 138.400 H 14.300 C 14.400 138.400 14.300 138.300 14.300 138.400 V 146.200 C 14.300 146.300 14.400 146.200 14.300 146.200 H 10.400 C 10.345 146.200 10.300 146.245 10.300 146.300 V 154.300 C 10.300 154.355 10.345 154.400 10.400 154.400 H 14.300 C 14.400 154.400 14.300 154.300 14.300 154.400 V 163.300 C 14.300 165.951 14.998 168.555 16.323 170.850 C 17.648 173.145 19.555 175.052 21.850 176.377 C 24.145 177.702 26.749 178.400 29.400 178.400 Z" stroke="rgb(0,0,0)" stroke-width="0.20" />
</g>
<g id="p-2" style="fill:none;stroke-linecap:round;stroke-linejoin:round;">
  <path d="M 171.600 178.400 H 185.000 C 185.100 178.400 185.000 178.300 185.000 178.400 V 182.300 C 185.000 182.355 185.045 182.400 185.100 182.400 H 193.100 C 193.155 182.400 193.200 182.355 193.200 182.300 V 178.400 C 193.200 178.300 193.100 178.400 193.200 178.400 H 201.000 C 201.100 178.400 201.000 178.300 201.000 178.400 V 182.300 C 201.000 182.355 201.045 182.400 201.100 182.400 H 209.100 C 209.155 182.400 209.200 182.355 209.200 182.300 V 178.400 C 209.200 178.300 209.100 178.400 209.200 178.400 H 222.600 H 236.000 C 236.100 178.400 236.000 178.300 236.000 178.400 V 182.300 C 236.000 182.355 236.045 182.400 236.100 182.400 H 244.100 C 244.155 182.400 244.200 182.355 244.200 182.300 V 178.400 C 244.200 178.300 244.100 178.400 244.200 178.400 H 252.000 C 252.100 178.400 252.000 178.300 252.000 178.400 V 182.300 C 252.000 182.355 252.045 182.400 252.100 182.400 H 260.100 C 260.155 182.400 260.200 182.355 260.200 182.300 V 178.400 C 260.200 178.300 260.100 178.400 260.200 178.400 H 273.600 C 276.251 178.400 278.855 177.702 281.150 176.377 C 283.445 175.052 285.352 173.145 286.677 170.850 C 288.002 168.555 288.700 165.951 288.700 163.300 V 154.400 C 288.700 154.300 288.600 154.400 288.700 154.400 H 292.600 C 292.655 154.400 292.700 154.355 292.700 154.300 V 146.300 C 292.700 146.245 292.655 146.200 292.600 146.200 H 288.700 C 288.600 146.200 288.700 146.300 288.700 146.200 V 138.400 C 288.700 138.300 288.600 138.400 288.700 138.400 H 292.600 C 292.655 138.400 292.700 138.355 292.700 138.300 V 130.300 C 292.700 130.245 292.655 130.200 292.600 130.200 H 288.700 C 288.600 130.200 288.700 130.300 288.700 130.200 V 121.300 C 288.700 118.649 288.002 116.045 286.677 113.750 C 285.352 111.455 283.445 109.548 281.150 108.223 C 278.855 106.898 276.251 106.200 273.600 106.200 H 258.700 C 258.600 106.200 258.700 106.300 258.700 106.200 V 102.300 C 258.700 102.245 258.655 102.200 258.600 102.200 H 250.600 C 250.545 102.200 250.500 102.245 250.500 102.300 V 106.200 C 250.500 106.300 250.600 106.200 250.500 106.200 H 242.700 C 242.600 106.200 242.700 106.300 242.700 106.200 V 102.300 C 242.700 102.245 242.655 102.200 242.600 102.200 H 234.600 C 234.545 102.200 234.500 102.245 234.500 102.300 V 106.200 C 234.500 106.300 234.600 106.200 234.500 106.200 H 226.700 C 226.600 106.200 226.700 106.300 226.700 106.200 V 102.300 C 226.700 102.245 226.655 102.200 226.600 102.200 H 218.600 C 218.545 102.200 218.500 102.245 218.500 102.300 V 106.200 C 218.500 106.300 218.600 106.200 218.500 106.200 H 210.700 C 210.600 106.200 210.700 106.300 210.700 106.200 V 102.300 C 210.700 102.245 210.655 102.200 210.600 102.200 H 202.600 C 202.545 102.200 202.500 102.245 202.500 102.300 V 106.200 C 202.500 106.300 202.600 106.200 202.500 106.200 H 194.700 C 194.600 106.200 194.700 106.300 194.700 106.200 V 102.300 C 194.700 102.245 194.655 102.200 194.600 102.200 H 186.600 C 186.545 102.200 186.500 102.245 186.500 102.300 V 106.200 C 186.500 106.300 186.600 106.200 186.500 106.200 H 171.600 C 168.949 106.200 166.345 106.898 164.050 108.223 C 161.755 109.548 159.848 111.455 158.523 113.750 C 157.198 116.045 156.500 118.649 156.500 121.300 V 130.200 C 156.500 130.300 156.600 130.200 156.500 130.200 H 152.600 C 152.545 130.200 152.500 130.245 152.500 130.300 V 138.300 C 152.500 138.355 152.545 138.400 152.600 138.400 H 156.500 C 156.600 138.400 156.500 138.300 156.500 138.400 V 146.200 C 156.500 146.300 156.600 146.200 156.500 146.200 H 152.600 C 152.545 146.200 152.500 146.245 152.500 146.300 V 154.300 C 152.500 154.355 152.545 154.400 152.600 154.400 H 156.500 C 156.600 154.400 156.500 154.300 156.500 154.400 V 163.300 C 156.500 165.951 157.198 168.555 158.523 170.850 C 159.848 173.145 161.755 175.052 164.050 176.377 C 166.345 177.702 168.949 178.400 171.600 178.400 Z" stroke="rgb(0,0,0)" stroke-width="0.20" />
</g>
<g id="p-3" style="fill:none;stroke-linecap:round;stroke-linejoin:round;">
  <path d="M 10.400 100.200 H 23.900 C 23.955 100.200 24.000 100.155 24.000 100.100 V 96.200 C 24.000 96.100 23.900 96.200 24.000 96.200 H 31.800 C 31.900 96.200 31.800 96.100 31.800 96.200 V 100.100 C 31.800 100.155 31.845 100.200 31.900 100.200 H 39.900 C 39.955 100.200 40.000 100.155 40.000 100.100 V 96.200 C 40.000 96.100 39.900 96.200 40.000 96.200 H 47.800 C 47.900 96.200 47.800 96.100 47.800 96.200 V 100.100 C 47.800 100.155 47.845 100.200 47.900 100.200 H 61.400 H 83.990 H 92.990 C 93.045 100.200 93.090 100.155 93.090 100.100 V 96.200 C 93.090 96.100 92.990 96.200 93.090 96.200 H 100.890 C 100.990 96.200 100.890 96.100 100.890 96.200 V 100.100 C 100.890 100.155 100.934 100.200 100.990 100.200 H 108.990 C 109.045 100.200 109.090 100.155 109.090 100.100 V 96.200 C 109.090 96.100 108.990 96.200 109.090 96.200 H 116.890 C 116.990 96.200 116.890 96.100 116.890 96.200 V 100.100 C 116.890 100.155 116.934 100.200 116.990 100.200 H 125.990 H 148.579 H 163.579 C 163.634 100.200 163.679 100.155 163.679 100.100 V 96.200 C 163.679 96.100 163.579 96.200 163.679 96.200 H 171.479 C 171.579 96.200 171.479 96.100 171.479 96.200 V 100.100 C 171.479 100.155 171.524 100.200 171.579 100.200 H 179.579 C 179.634 100.200 179.679 100.155 179.679 100.100 V 96.200 C 179.679 96.100 179.579 96.200 179.679 96.200 H 187.479 C 187.579 96.200 187.479 96.100 187.479 96.200 V 100.100 C 187.479 100.155 187.524 100.200 187.579 100.200 H 195.579 C 195.634 100.200 195.679 100.155 195.679 100.100 V 96.200 C 195.679 96.100 195.579 96.200 195.679 96.200 H 203.479 C 203.579 96.200 203.479 96.100 203.479 96.200 V 100.100 C 203.479 100.155 203.524 100.200 203.579 100.200 H 211.579 C 211.634 100.200 211.679 100.155 211.679 100.100 V 96.200 C 211.679 96.100 211.579 96.200 211.679 96.200 H 219.479 C 219.579 96.200 219.479 96.100 219.479 96.200 V 100.100 C 219.479 100.155 219.524 100.200 219.579 100.200 H 227.579 C 227.634 100.200 227.679 100.155 227.679 100.100 V 96.200 C 227.679 96.100 227.579 96.200 227.679 96.200 H 235.479 C 235.579 96.200 235.479 96.100 235.479 96.200 V 100.100 C 235.479 100.155 235.524 100.200 235.579 100.200 H 250.579 H 273.169 H 282.169 C 282.224 100.200 282.269 100.155 282.269 100.100 V 96.200 C 282.269 96.100 282.169 96.200 282.269 96.200 H 290.069 C 290.169 96.200 290.069 96.100 290.069 96.200 V 100.100 C 290.069 100.155 290.113 100.200 290.169 100.200 H 298.169 C 298.224 100.200 298.269 100.155 298.269 100.100 V 96.200 C 298.269 96.100 298.169 96.200 298.269 96.200 H 306.069 C 306.169 96.200 306.069 96.100 306.069 96.200 V 100.100 C 306.069 100.155 306.113 100.200 306.169 100.200 H 315.169 H 337.758 H 351.258 C 351.313 100.200 351.358 100.155 351.358 100.100 V 96.200 C 351.358 96.100 351.258 96.200 351.358 96.200 H 359.158 C 359.258 96.200 359.158 96.100 359.158 96.200 V 100.100 C 359.158 100.155 359.203 100.200 359.258 100.200 H 367.258 C 367.313 100.200 367.358 100.155 367.358 100.100 V 96.200 C 367.358 96.100 367.258 96.200 367.358 96.200 H 375.158 C 375.258 96.200 375.158 96.100 375.158 96.200 V 100.100 C 375.158 100.155 375.203 100.200 375.258 100.200 H 388.758 C 388.813 100.200 388.858 100.155 388.858 100.100 V 96.100 V 83.723 C 388.858 83.579 388.902 83.439 388.985 83.321 C 389.067 83.204 389.184 83.114 389.319 83.065 C 389.454 83.016 389.601 83.009 389.739 83.047 C 389.878 83.084 390.002 83.163 390.094 83.273 L 393.269 87.056 C 393.387 87.197 393.547 87.299 393.725 87.347 C 393.904 87.394 394.092 87.386 394.266 87.323 C 394.440 87.260 394.589 87.145 394.695 86.993 C 394.801 86.842 394.858 86.662 394.858 86.477 V 71.723 C 394.858 71.538 394.801 71.358 394.695 71.207 C 394.589 71.055 394.440 70.940 394.266 70.877 C 394.092 70.814 393.904 70.806 393.725 70.853 C 393.547 70.901 393.387 71.003 393.269 71.144 L 390.094 74.927 C 390.002 75.037 389.878 75.116 389.739 75.153 C 389.601 75.191 389.454 75.184 389.319 75.135 C 389.184 75.086 389.067 74.996 388.985 74.879 C 388.902 74.761 388.858 74.621 388.858 74.477 V 59.723 C 388.858 59.579 388.902 59.439 388.985 59.321 C 389.067 59.204 389.184 59.114 389.319 59.065 C 389.454 59.016 389.601 59.009 389.739 59.047 C 389.878 59.084 390.002 59.163 390.094 59.273 L 393.269 63.056 C 393.387 63.197 393.547 63.299 393.725 63.347 C 393.904 63.394 394.092 63.386 394.266 63.323 C 394.440 63.260 394.589 63.145 394.695 62.993 C 394.801 62.842 394.858 62.662 394.858 62.477 V 47.723 C 394.858 47.538 394.801 47.358 394.695 47.207 C 394.589 47.055 394.440 46.940 394.266 46.877 C 394.092 46.814 393.904 46.806 393.725 46.853 C 393.547 46.901 393.387 47.003 393.269 47.144 L 390.094 50.927 C 390.002 51.037 389.878 51.116 389.739 51.153 C 389.601 51.191 389.454 51.184 389.319 51.135 C 389.184 51.086 389.067 50.996 388.985 50.879 C 388.902 50.761 388.858 50.621 388.858 50.477 V 35.723 C 388.858 35.579 388.902 35.439 388.985 35.321 C 389.067 35.204 389.184 35.114 389.319 35.065 C 389.454 35.016 389.601 35.009 389.739 35.047 C 389.878 35.084 390.002 35.163 390.094 35.273 L 393.269 39.056 C 393.387 39.197 393.547 39.299 393.725 39.347 C 393.904 39.394 394.092 39.386 394.266 39.323 C 394.440 39.260 394.589 39.145 394.695 38.993 C 394.801 38.842 394.858 38.662 394.858 38.477 V 23.723 C 394.858 23.538 394.801 23.358 394.695 23.207 C 394.589 23.055 394.440 22.940 394.266 22.877 C 394.092 22.814 393.904 22.806 393.725 22.853 C 393.547 22.901 393.387 23.003 393.269 23.144 L 390.094 26.927 C 390.002 27.037 389.878 27.116 389.739 27.153 C 389.601 27.191 389.454 27.184 389.319 27.135 C 389.184 27.086 389.067 26.996 388.985 26.879 C 388.902 26.761 388.858 26.621 388.858 26.477 V 14.100 V 10.100 C 388.858 10.045 388.813 10.000 388.758 10.000 H 375.258 C 375.203 10.000 375.158 10.045 375.158 10.100 V 14.000 C 375.158 14.100 375.258 14.000 375.158 14.000 H 367.358 C 367.258 14.000 367.358 14.100 367.358 14.000 V 10.100 C 367.358 10.045 367.313 10.000 367.258 10.000 H 359.258 C 359.203 10.000 359.158 10.045 359.158 10.100 V 14.000 C 359.158 14.100 359.258 14.000 359.158 14.000 H 351.358 C 351.258 14.000 351.358 14.100 351.358 14.000 V 10.100 C 351.358 10.045 351.313 10.000 351.258 10.000 H 337.758 H 315.169 H 306.169 C 306.113 10.000 306.069 10.045 306.069 10.100 V 14.000 C 306.069 14.100 306.169 14.000 306.069 14.000 H 298.269 C 298.169 14.000 298.269 14.100 298.269 14.000 V 10.100 C 298.269 10.045 298.224 10.000 298.169 10.000 H 290.169 C 290.113 10.000 290.069 10.045 290.069 10.100 V 14.000 C 290.069 14.100 290.169 14.000 290.069 14.000 H 282.269 C 282.169 14.000 282.269 14.100 282.269 14.000 V 10.100 C 282.269 10.045 282.224 10.000 282.169 10.000 H 273.169 H 250.579 H 235.579 C 235.524 10.000 235.479 10.045 235.479 10.100 V 14.000 C 235.479 14.100 235.579 14.000 235.479 14.000 H 227.679 C 227.579 14.000 227.679 14.100 227.679 14.000 V 10.100 C 227.679 10.045 227.634 10.000 227.579 10.000 H 219.579 C 219.524 10.000 219.479 10.045 219.479 10.100 V 14.000 C 219.479 14.100 219.579 14.000 219.479 14.000 H 211.679 C 211.579 14.000 211.679 14.100 211.679 14.000 V 10.100 C 211.679 10.045 211.634 10.000 211.579 10.000 H 203.579 C 203.524 10.000 203.479 10.045 203.479 10.100 V 14.000 C 203.479 14.100 203.579 14.000 203.479 14.000 H 195.679 C 195.579 14.000 195.679 14.100 195.679 14.000 V 10.100 C 195.679 10.045 195.634 10.000 195.579 10.000 H 187.579 C 187.524 10.000 187.479 10.045 187.479 10.100 V 14.000 C 187.479 14.100 187.579 14.000 187.479 14.000 H 179.679 C 179.579 14.000 179.679 14.100 179.679 14.000 V 10.100 C 179.679 10.045 179.634 10.000 179.579 10.000 H 171.579 C 171.524 10.000 171.479 10.045 171.479 10.100 V 14.000 C 171.479 14.100 171.579 14.000 171.479 14.000 H 163.679 C 163.579 14.000 163.679 14.100 163.679 14.000 V 10.100 C 163.679 10.045 163.634 10.000 163.579 10.000 H 148.579 H 125.990 H 116.990 C 116.934 10.000 116.890 10.045 116.890 10.100 V 14.000 C 116.890 14.100 116.990 14.000 116.890 14.000 H 109.090 C 108.990 14.000 109.090 14.100 109.090 14.000 V 10.100 C 109.090 10.045 109.045 10.000 108.990 10.000 H 100.990 C 100.934 10.000 100.890 10.045 100.890 10.100 V 14.000 C 100.890 14.100 100.990 14.000 100.890 14.000 H 93.090 C 92.990 14.000 93.090 14.100 93.090 14.000 V 10.100 C 93.090 10.045 93.045 10.000 92.990 10.000 H 83.990 H 61.400 H 47.900 C 47.845 10.000 47.800 10.045 47.800 10.100 V 14.000 C 47.800 14.100 47.900 14.000 47.800 14.000 H 40.000 C 39.900 14.000 40.000 14.100 40.000 14.000 V 10.100 C 40.000 10.045 39.955 10.000 39.900 10.000 H 31.900 C 31.845 10.000 31.800 10.045 31.800 10.100 V 14.000 C 31.800 14.100 31.900 14.000 31.800 14.000 H 24.000 C 23.900 14.000 24.000 14.100 24.000 14.000 V 10.100 C 24.000 10.045 23.955 10.000 23.900 10.000 H 10.400 C 10.345 10.000 10.300 10.045 10.300 10.100 V 14.100 V 26.477 C 10.300 26.662 10.357 26.842 10.463 26.993 C 10.569 27.145 10.719 27.260 10.892 27.323 C 11.066 27.386 11.255 27.394 11.433 27.347 C 11.611 27.299 11.771 27.197 11.889 27.056 L 15.064 23.273 C 15.156 23.163 15.280 23.084 15.419 23.047 C 15.558 23.009 15.704 23.016 15.839 23.065 C 15.974 23.114 16.091 23.204 16.173 23.321 C 16.256 23.439 16.300 23.579 16.300 23.723 V 38.477 C 16.300 38.621 16.256 38.761 16.173 38.879 C 16.091 38.996 15.974 39.086 15.839 39.135 C 15.704 39.184 15.558 39.191 15.419 39.153 C 15.280 39.116 15.156 39.037 15.064 38.927 L 11.889 35.144 C 11.771 35.003 11.611 34.901 11.433 34.853 C 11.255 34.806 11.066 34.814 10.892 34.877 C 10.719 34.940 10.569 35.055 10.463 35.207 C 10.357 35.358 10.300 35.538 10.300 35.723 V 50.477 C 10.300 50.662 10.357 50.842 10.463 50.993 C 10.569 51.145 10.719 51.260 10.892 51.323 C 11.066 51.386 11.255 51.394 11.433 51.347 C 11.611 51.299 11.771 51.197 11.889 51.056 L 15.064 47.273 C 15.156 47.163 15.280 47.084 15.419 47.047 C 15.558 47.009 15.704 47.016 15.839 47.065 C 15.974 47.114 16.091 47.204 16.173 47.321 C 16.256 47.439 16.300 47.579 16.300 47.723 V 62.477 C 16.300 62.621 16.256 62.761 16.173 62.879 C 16.091 62.996 15.974 63.086 15.839 63.135 C 15.704 63.184 15.558 63.191 15.419 63.153 C 15.280 63.116 15.156 63.037 15.064 62.927 L 11.889 59.144 C 11.771 59.003 11.611 58.901 11.433 58.853 C 11.255 58.806 11.066 58.814 10.892 58.877 C 10.719 58.940 10.569 59.055 10.463 59.207 C 10.357 59.358 10.300 59.538 10.300 59.723 V 74.477 C 10.300 74.662 10.357 74.842 10.463 74.993 C 10.569 75.145 10.719 75.260 10.892 75.323 C 11.066 75.386 11.255 75.394 11.433 75.347 C 11.611 75.299 11.771 75.197 11.889 75.056 L 15.064 71.273 C 15.156 71.163 15.280 71.084 15.419 71.047 C 15.558 71.009 15.704 71.016 15.839 71.065 C 15.974 71.114 16.091 71.204 16.173 71.321 C 16.256 71.439 16.300 71.579 16.300 71.723 V 86.477 C 16.300 86.621 16.256 86.761 16.173 86.879 C 16.091 86.996 15.974 87.086 15.839 87.135 C 15.704 87.184 15.558 87.191 15.419 87.153 C 15.280 87.116 15.156 87.037 15.064 86.927 L 11.889 83.144 C 11.771 83.003 11.611 82.901 11.433 82.853 C 11.255 82.806 11.066 82.814 10.892 82.877 C 10.719 82.940 10.569 83.055 10.463 83.207 C 10.357 83.358 10.300 83.538 10.300 83.723 V 96.100 V 100.100 C 10.300 100.155 10.345 100.200 10.400 100.200 Z" stroke="rgb(0,0,0)" stroke-width="0.20" />
  <path d="M 63.695 100.200 V 78.650 M 63.695 74.650 V 35.550 M 63.695 31.550 V 10.000 M 65.695 14.000 V 53.100 M 65.695 57.100 V 96.200 M 67.695 100.200 V 78.650 M 67.695 74.650 V 35.550 M 67.695 31.550 V 10.000 M 69.695 14.000 V 53.100 M 69.695 57.100 V 96.200 M 71.695 100.200 V 78.650 M 71.695 74.650 V 35.550 M 71.695 31.550 V 10.000 M 73.695 14.000 V 53.100 M 73.695 57.100 V 96.200 M 75.695 100.200 V 78.650 M 75.695 74.650 V 35.550 M 75.695 31.550 V 10.000 M 77.695 14.000 V 53.100 M 77.695 57.100 V 96.200 M 79.695 100.200 V 78.650 M 79.695 74.650 V 35.550 M 79.695 31.550 V 10.000 M 81.695 14.000 V 53.100 M 81.695 57.100 V 96.200" stroke="rgb(0,0,0)" stroke-width="0.20" />
  <path d="M 128.284 100.200 V 78.650 M 128.284 74.650 V 35.550 M 128.284 31.550 V 10.000 M 130.284 14.000 V 53.100 M 130.284 57.100 V 96.200 M 132.284 100.200 V 78.650 M 132.284 74.650 V 35.550 M 132.284 31.550 V 10.000 M 134.284 14.000 V 53.100 M 134.284 57.100 V 96.200 M 136.284 100.200 V 78.650 M 136.284 74.650 V 35.550 M 136.284 31.550 V 10.000 M 138.284 14.000 V 53.100 M 138.284 57.100 V 96.200 M 140.284 100.200 V 78.650 M 140.284 74.650 V 35.550 M 140.284 31.550 V 10.000 M 142.284 14.000 V 53.100 M 142.284 57.100 V 96.200 M 144.284 100.200 V 78.650 M 144.284 74.650 V 35.550 M 144.284 31.550 V 10.000 M 146.284 14.000 V 53.100 M 146.284 57.100 V 96.200" stroke="rgb(0,0,0)" stroke-width="0.20" />
  <path d="M 252.874 100.200 V 78.650 M 252.874 74.650 V 35.550 M 252.874 31.550 V 10.000 M 254.874 14.000 V 53.100 M 254.874 57.100 V 96.200 M 256.874 100.200 V 78.650 M 256.874 74.650 V 35.550 M 256.874 31.550 V 10.000 M 258.874 14.000 V 53.100 M 258.874 57.100 V 96.200 M 260.874 100.200 V 78.650 M 260.874 74.650 V 35.550 M 260.874 31.550 V 10.000 M 262.874 14.000 V 53.100 M 262.874 57.100 V 96.200 M 264.874 100.200 V 78.650 M 264.874 74.650 V 35.550 M 264.874 31.550 V 10.000 M 266.874 14.000 V 53.100 M 266.874 57.100 V 96.200 M 268.874 100.200 V 78.650 M 268.874 74.650 V 35.550 M 268.874 31.550 V 10.000 M 270.874 14.000 V 53.100 M 270.874 57.100 V 96.200" stroke="rgb(0,0,0)" stroke-width="0.20" />
  <path d="M 317.463 100.200 V 78.650 M 317.463 74.650 V 35.550 M 317.463 31.550 V 10.000 M 319.463 14.000 V 53.100 M 319.463 57.100 V 96.200 M 321.463 100.200 V 78.650 M 321.463 74.650 V 35.550 M 321.463 31.550 V 10.000 M 323.463 14.000 V 53.100 M 323.463 57.100 V 96.200 M 325.463 100.200 V 78.650 M 325.463 74.650 V 35.550 M 325.463 31.550 V 10.000 M 327.463 14.000 V 53.100 M 327.463 57.100 V 96.200 M 329.463 100.200 V 78.650 M 329.463 74.650 V 35.550 M 329.463 31.550 V 10.000 M 331.463 14.000 V 53.100 M 331.463 57.100 V 96.200 M 333.463 100.200 V 78.650 M 333.463 74.650 V 35.550 M 333.463 31.550 V 10.000 M 335.463 14.000 V 53.100 M 335.463 57.100 V 96.200" stroke="rgb(0,0,0)" stroke-width="0.20" />
</g>
</svg>