solid OpenSCAD_Model
  facet normal -1 0 0
    outer loop
      vertex -7.5 -3 -8.5
      vertex -7.5 3 8.5
      vertex -7.5 3 -8.5
    endloop
  endfacet
  facet normal -1 -0 0
    outer loop
      vertex -7.5 3 8.5
      vertex -7.5 -3 -8.5
      vertex -7.5 -3 8.5
    endloop
  endfacet
  facet normal -0 0 1
    outer loop
      vertex -7.5 3 8.5
      vertex 7.5 -3 8.5
      vertex 7.5 3 8.5
    endloop
  endfacet
  facet normal 0 0 1
    outer loop
      vertex 7.5 -3 8.5
      vertex -7.5 3 8.5
      vertex -7.5 -3 8.5
    endloop
  endfacet
  facet normal 1 -0 0
    outer loop
      vertex 7.5 -3 8.5
      vertex 7.5 3 -8.5
      vertex 7.5 3 8.5
    endloop
  endfacet
  facet normal 1 0 0
    outer loop
      vertex 7.5 3 -8.5
      vertex 7.5 -3 8.5
      vertex 7.5 -3 -8.5
    endloop
  endfacet
  facet normal 0 0 -1
    outer loop
      vertex 7.5 -3 -8.5
      vertex 5.5 -1.5 -8.5
      vertex 7.5 3 -8.5
    endloop
  endfacet
  facet normal 0 0 -1
    outer loop
      vertex 7.5 -3 -8.5
      vertex -5.5 -1.5 -8.5
      vertex 5.5 -1.5 -8.5
    endloop
  endfacet
  facet normal 0 0 -1
    outer loop
      vertex -7.5 -3 -8.5
      vertex -5.5 -1.5 -8.5
      vertex 7.5 -3 -8.5
    endloop
  endfacet
  facet normal 0 0 -1
    outer loop
      vertex -7.5 3 -8.5
      vertex -5.5 -1.5 -8.5
      vertex -7.5 -3 -8.5
    endloop
  endfacet
  facet normal 0 0 -1
    outer loop
      vertex -5.5 -1.5 -8.5
      vertex -7.5 3 -8.5
      vertex -5.5 3 -8.5
    endloop
  endfacet
  facet normal -0 0 -1
    outer loop
      vertex 7.5 3 -8.5
      vertex 5.5 -1.5 -8.5
      vertex 5.5 3 -8.5
    endloop
  endfacet
  facet normal 0 -1 0
    outer loop
      vertex -7.5 -3 -8.5
      vertex 7.5 -3 8.5
      vertex -7.5 -3 8.5
    endloop
  endfacet
  facet normal 0 -1 -0
    outer loop
      vertex 7.5 -3 8.5
      vertex -7.5 -3 -8.5
      vertex 7.5 -3 -8.5
    endloop
  endfacet
  facet normal 0 1 0
    outer loop
      vertex 7.5 3 8.5
      vertex 5.5 3 6.5
      vertex -7.5 3 8.5
    endloop
  endfacet
  facet normal 0 1 -0
    outer loop
      vertex 7.5 3 -8.5
      vertex 5.5 3 6.5
      vertex 7.5 3 8.5
    endloop
  endfacet
  facet normal 0 1 0
    outer loop
      vertex 5.5 3 6.5
      vertex 7.5 3 -8.5
      vertex 5.5 3 -8.5
    endloop
  endfacet
  facet normal 0 1 -0
    outer loop
      vertex -5.5 3 6.5
      vertex -7.5 3 8.5
      vertex 5.5 3 6.5
    endloop
  endfacet
  facet normal 0 1 0
    outer loop
      vertex -7.5 3 -8.5
      vertex -5.5 3 6.5
      vertex -5.5 3 -8.5
    endloop
  endfacet
  facet normal 0 1 0
    outer loop
      vertex -5.5 3 6.5
      vertex -7.5 3 -8.5
      vertex -7.5 3 8.5
    endloop
  endfacet
  facet normal 1 -0 0
    outer loop
      vertex -5.5 -1.5 6.5
      vertex -5.5 3 -8.5
      vertex -5.5 3 6.5
    endloop
  endfacet
  facet normal 1 0 0
    outer loop
      vertex -5.5 3 -8.5
      vertex -5.5 -1.5 6.5
      vertex -5.5 -1.5 -8.5
    endloop
  endfacet
  facet normal 0 0 -1
    outer loop
      vertex -5.5 -1.5 6.5
      vertex 5.5 3 6.5
      vertex 5.5 -1.5 6.5
    endloop
  endfacet
  facet normal -0 0 -1
    outer loop
      vertex 5.5 3 6.5
      vertex -5.5 -1.5 6.5
      vertex -5.5 3 6.5
    endloop
  endfacet
  facet normal -1 0 0
    outer loop
      vertex 5.5 -1.5 -8.5
      vertex 5.5 3 6.5
      vertex 5.5 3 -8.5
    endloop
  endfacet
  facet normal -1 -0 0
    outer loop
      vertex 5.5 3 6.5
      vertex 5.5 -1.5 -8.5
      vertex 5.5 -1.5 6.5
    endloop
  endfacet
  facet normal 0 1 -0
    outer loop
      vertex 5.5 -1.5 -8.5
      vertex -5.5 -1.5 6.5
      vertex 5.5 -1.5 6.5
    endloop
  endfacet
  facet normal 0 1 0
    outer loop
      vertex -5.5 -1.5 6.5
      vertex 5.5 -1.5 -8.5
      vertex -5.5 -1.5 -8.5
    endloop
  endfacet
endsolid OpenSCAD_Model
