solid OpenSCAD_Model
  facet normal -1 0 0
    outer loop
      vertex 0 44 0
      vertex 0 40 6
      vertex 0 44 34
    endloop
  endfacet
  facet normal -1 0 0
    outer loop
      vertex 0 44 0
      vertex 0 30 4
      vertex 0 40 6
    endloop
  endfacet
  facet normal -1 0 0
    outer loop
      vertex 0 0 0
      vertex 0 30 4
      vertex 0 44 0
    endloop
  endfacet
  facet normal -1 0 0
    outer loop
      vertex 0 13 4
      vertex 0 4 6
      vertex 0 13 6
    endloop
  endfacet
  facet normal -1 0 0
    outer loop
      vertex 0 0 34
      vertex 0 4 6
      vertex 0 0 0
    endloop
  endfacet
  facet normal -1 -0 0
    outer loop
      vertex 0 13 4
      vertex 0 0 0
      vertex 0 4 6
    endloop
  endfacet
  facet normal -1 -0 0
    outer loop
      vertex 0 30 4
      vertex 0 0 0
      vertex 0 13 4
    endloop
  endfacet
  facet normal -1 0 0
    outer loop
      vertex 0 40 30
      vertex 0 44 34
      vertex 0 40 6
    endloop
  endfacet
  facet normal -1 0 0
    outer loop
      vertex 0 30 34
      vertex 0 40 30
      vertex 0 30 30
    endloop
  endfacet
  facet normal -1 0 0
    outer loop
      vertex 0 40 30
      vertex 0 30 34
      vertex 0 44 34
    endloop
  endfacet
  facet normal -1 -0 0
    outer loop
      vertex 0 40 6
      vertex 0 30 4
      vertex 0 30 6
    endloop
  endfacet
  facet normal -1 0 0
    outer loop
      vertex 0 4 30
      vertex 0 13 34
      vertex 0 13 30
    endloop
  endfacet
  facet normal -1 0 0
    outer loop
      vertex 0 4 30
      vertex 0 0 34
      vertex 0 13 34
    endloop
  endfacet
  facet normal -1 0 0
    outer loop
      vertex 0 4 6
      vertex 0 0 34
      vertex 0 4 30
    endloop
  endfacet
  facet normal -0 0 1
    outer loop
      vertex 0 13 34
      vertex 2 0 34
      vertex 2 13 34
    endloop
  endfacet
  facet normal 0 0 1
    outer loop
      vertex 2 0 34
      vertex 0 13 34
      vertex 0 0 34
    endloop
  endfacet
  facet normal -0 0 1
    outer loop
      vertex 0 44 34
      vertex 2 30 34
      vertex 2 44 34
    endloop
  endfacet
  facet normal 0 0 1
    outer loop
      vertex 2 30 34
      vertex 0 44 34
      vertex 0 30 34
    endloop
  endfacet
  facet normal 1 0 0
    outer loop
      vertex 2 13 34
      vertex 2 4 30
      vertex 2 13 30
    endloop
  endfacet
  facet normal 1 0 0
    outer loop
      vertex 2 4 30
      vertex 2 0 34
      vertex 2 4 6
    endloop
  endfacet
  facet normal 1 -0 0
    outer loop
      vertex 2 0 34
      vertex 2 4 30
      vertex 2 13 34
    endloop
  endfacet
  facet normal 1 0 0
    outer loop
      vertex 2 13 6
      vertex 2 4 6
      vertex 2 13 4
    endloop
  endfacet
  facet normal 1 0 0
    outer loop
      vertex 2 40 6
      vertex 2 44 34
      vertex 2 40 30
    endloop
  endfacet
  facet normal 1 -0 0
    outer loop
      vertex 2 30 34
      vertex 2 40 30
      vertex 2 44 34
    endloop
  endfacet
  facet normal 1 0 0
    outer loop
      vertex 2 40 30
      vertex 2 30 34
      vertex 2 30 30
    endloop
  endfacet
  facet normal 1 0 0
    outer loop
      vertex 2 44 34
      vertex 2 40 6
      vertex 2 44 0
    endloop
  endfacet
  facet normal 1 0 0
    outer loop
      vertex 2 30 4
      vertex 2 40 6
      vertex 2 30 6
    endloop
  endfacet
  facet normal 1 0 0
    outer loop
      vertex 2 40 6
      vertex 2 30 4
      vertex 2 44 0
    endloop
  endfacet
  facet normal 1 0 0
    outer loop
      vertex 2 0 0
      vertex 2 30 4
      vertex 2 13 4
    endloop
  endfacet
  facet normal 1 0 0
    outer loop
      vertex 2 30 4
      vertex 2 0 0
      vertex 2 44 0
    endloop
  endfacet
  facet normal 1 0 0
    outer loop
      vertex 2 4 6
      vertex 2 0 0
      vertex 2 13 4
    endloop
  endfacet
  facet normal 1 0 0
    outer loop
      vertex 2 0 0
      vertex 2 4 6
      vertex 2 0 34
    endloop
  endfacet
  facet normal 0 1 -0
    outer loop
      vertex 2 44 0
      vertex 0 44 34
      vertex 2 44 34
    endloop
  endfacet
  facet normal 0 1 0
    outer loop
      vertex 0 44 34
      vertex 2 44 0
      vertex 0 44 0
    endloop
  endfacet
  facet normal 0 0 -1
    outer loop
      vertex 0 0 0
      vertex 2 44 0
      vertex 2 0 0
    endloop
  endfacet
  facet normal -0 0 -1
    outer loop
      vertex 2 44 0
      vertex 0 0 0
      vertex 0 44 0
    endloop
  endfacet
  facet normal 0 -1 0
    outer loop
      vertex 0 0 0
      vertex 2 0 34
      vertex 0 0 34
    endloop
  endfacet
  facet normal 0 -1 -0
    outer loop
      vertex 2 0 34
      vertex 0 0 0
      vertex 2 0 0
    endloop
  endfacet
  facet normal 0 0 -1
    outer loop
      vertex 0 4 30
      vertex 2 13 30
      vertex 2 4 30
    endloop
  endfacet
  facet normal -0 0 -1
    outer loop
      vertex 2 13 30
      vertex 0 4 30
      vertex 0 13 30
    endloop
  endfacet
  facet normal 0 0 -1
    outer loop
      vertex 0 30 30
      vertex 2 40 30
      vertex 2 30 30
    endloop
  endfacet
  facet normal -0 0 -1
    outer loop
      vertex 2 40 30
      vertex 0 30 30
      vertex 0 40 30
    endloop
  endfacet
  facet normal -0 0 1
    outer loop
      vertex 0 13 6
      vertex 2 4 6
      vertex 2 13 6
    endloop
  endfacet
  facet normal 0 0 1
    outer loop
      vertex 2 4 6
      vertex 0 13 6
      vertex 0 4 6
    endloop
  endfacet
  facet normal -0 0 1
    outer loop
      vertex 0 40 6
      vertex 2 30 6
      vertex 2 40 6
    endloop
  endfacet
  facet normal 0 0 1
    outer loop
      vertex 2 30 6
      vertex 0 40 6
      vertex 0 30 6
    endloop
  endfacet
  facet normal 0 1 -0
    outer loop
      vertex 2 4 6
      vertex 0 4 30
      vertex 2 4 30
    endloop
  endfacet
  facet normal 0 1 0
    outer loop
      vertex 0 4 30
      vertex 2 4 6
      vertex 0 4 6
    endloop
  endfacet
  facet normal 0 -1 0
    outer loop
      vertex 0 40 6
      vertex 2 40 30
      vertex 0 40 30
    endloop
  endfacet
  facet normal 0 -1 -0
    outer loop
      vertex 2 40 30
      vertex 0 40 6
      vertex 2 40 6
    endloop
  endfacet
  facet normal 0 -1 0
    outer loop
      vertex 0 30 30
      vertex 2 30 34
      vertex 0 30 34
    endloop
  endfacet
  facet normal 0 -1 -0
    outer loop
      vertex 2 30 34
      vertex 0 30 30
      vertex 2 30 30
    endloop
  endfacet
  facet normal 0 -1 0
    outer loop
      vertex 0 30 4
      vertex 2 30 6
      vertex 0 30 6
    endloop
  endfacet
  facet normal 0 -1 -0
    outer loop
      vertex 2 30 6
      vertex 0 30 4
      vertex 2 30 4
    endloop
  endfacet
  facet normal -0 0 1
    outer loop
      vertex 0 30 4
      vertex 2 13 4
      vertex 2 30 4
    endloop
  endfacet
  facet normal 0 0 1
    outer loop
      vertex 2 13 4
      vertex 0 30 4
      vertex 0 13 4
    endloop
  endfacet
  facet normal 0 1 -0
    outer loop
      vertex 2 13 30
      vertex 0 13 34
      vertex 2 13 34
    endloop
  endfacet
  facet normal 0 1 0
    outer loop
      vertex 0 13 34
      vertex 2 13 30
      vertex 0 13 30
    endloop
  endfacet
  facet normal 0 1 -0
    outer loop
      vertex 2 13 4
      vertex 0 13 6
      vertex 2 13 6
    endloop
  endfacet
  facet normal 0 1 0
    outer loop
      vertex 0 13 6
      vertex 2 13 4
      vertex 0 13 4
    endloop
  endfacet
endsolid OpenSCAD_Model
