solid OpenSCAD_Model
  facet normal 0.998629 0.052354 0
    outer loop
      vertex 2.5 0 5
      vertex 2.4863 0.261321 0
      vertex 2.4863 0.261321 5
    endloop
  endfacet
  facet normal 0.998629 0.052354 0
    outer loop
      vertex 2.4863 0.261321 0
      vertex 2.5 0 5
      vertex 2.5 0 0
    endloop
  endfacet
  facet normal 0.987692 0.156413 0
    outer loop
      vertex 2.4863 0.261321 5
      vertex 2.44537 0.519779 0
      vertex 2.44537 0.519779 5
    endloop
  endfacet
  facet normal 0.987692 0.156413 0
    outer loop
      vertex 2.44537 0.519779 0
      vertex 2.4863 0.261321 5
      vertex 2.4863 0.261321 0
    endloop
  endfacet
  facet normal 0.965924 0.258827 0
    outer loop
      vertex 2.44537 0.519779 5
      vertex 2.37764 0.772542 0
      vertex 2.37764 0.772542 5
    endloop
  endfacet
  facet normal 0.965924 0.258827 0
    outer loop
      vertex 2.37764 0.772542 0
      vertex 2.44537 0.519779 5
      vertex 2.44537 0.519779 0
    endloop
  endfacet
  facet normal 0.933577 0.358377 0
    outer loop
      vertex 2.37764 0.772542 5
      vertex 2.28386 1.01684 0
      vertex 2.28386 1.01684 5
    endloop
  endfacet
  facet normal 0.933577 0.358377 0
    outer loop
      vertex 2.28386 1.01684 0
      vertex 2.37764 0.772542 5
      vertex 2.37764 0.772542 0
    endloop
  endfacet
  facet normal 0.891008 0.453988 0
    outer loop
      vertex 2.28386 1.01684 5
      vertex 2.16506 1.25 0
      vertex 2.16506 1.25 5
    endloop
  endfacet
  facet normal 0.891008 0.453988 0
    outer loop
      vertex 2.16506 1.25 0
      vertex 2.28386 1.01684 5
      vertex 2.28386 1.01684 0
    endloop
  endfacet
  facet normal 0.838669 0.544642 0
    outer loop
      vertex 2.16506 1.25 5
      vertex 2.02254 1.46946 0
      vertex 2.02254 1.46946 5
    endloop
  endfacet
  facet normal 0.838669 0.544642 0
    outer loop
      vertex 2.02254 1.46946 0
      vertex 2.16506 1.25 5
      vertex 2.16506 1.25 0
    endloop
  endfacet
  facet normal 0.777157 0.629307 0
    outer loop
      vertex 2.02254 1.46946 5
      vertex 1.85786 1.67283 0
      vertex 1.85786 1.67283 5
    endloop
  endfacet
  facet normal 0.777157 0.629307 0
    outer loop
      vertex 1.85786 1.67283 0
      vertex 2.02254 1.46946 5
      vertex 2.02254 1.46946 0
    endloop
  endfacet
  facet normal 0.707107 0.707107 0
    outer loop
      vertex 1.85786 1.67283 5
      vertex 1.67283 1.85786 0
      vertex 1.67283 1.85786 5
    endloop
  endfacet
  facet normal 0.707107 0.707107 0
    outer loop
      vertex 1.67283 1.85786 0
      vertex 1.85786 1.67283 5
      vertex 1.85786 1.67283 0
    endloop
  endfacet
  facet normal 0.629307 0.777157 -0
    outer loop
      vertex 1.67283 1.85786 0
      vertex 1.46946 2.02254 5
      vertex 1.67283 1.85786 5
    endloop
  endfacet
  facet normal 0.629307 0.777157 0
    outer loop
      vertex 1.46946 2.02254 5
      vertex 1.67283 1.85786 0
      vertex 1.46946 2.02254 0
    endloop
  endfacet
  facet normal 0.544642 0.838669 -0
    outer loop
      vertex 1.46946 2.02254 0
      vertex 1.25 2.16506 5
      vertex 1.46946 2.02254 5
    endloop
  endfacet
  facet normal 0.544642 0.838669 0
    outer loop
      vertex 1.25 2.16506 5
      vertex 1.46946 2.02254 0
      vertex 1.25 2.16506 0
    endloop
  endfacet
  facet normal 0.453988 0.891008 -0
    outer loop
      vertex 1.25 2.16506 0
      vertex 1.01684 2.28386 5
      vertex 1.25 2.16506 5
    endloop
  endfacet
  facet normal 0.453988 0.891008 0
    outer loop
      vertex 1.01684 2.28386 5
      vertex 1.25 2.16506 0
      vertex 1.01684 2.28386 0
    endloop
  endfacet
  facet normal 0.358377 0.933577 -0
    outer loop
      vertex 1.01684 2.28386 0
      vertex 0.772542 2.37764 5
      vertex 1.01684 2.28386 5
    endloop
  endfacet
  facet normal 0.358377 0.933577 0
    outer loop
      vertex 0.772542 2.37764 5
      vertex 1.01684 2.28386 0
      vertex 0.772542 2.37764 0
    endloop
  endfacet
  facet normal 0.258827 0.965924 -0
    outer loop
      vertex 0.772542 2.37764 0
      vertex 0.519779 2.44537 5
      vertex 0.772542 2.37764 5
    endloop
  endfacet
  facet normal 0.258827 0.965924 0
    outer loop
      vertex 0.519779 2.44537 5
      vertex 0.772542 2.37764 0
      vertex 0.519779 2.44537 0
    endloop
  endfacet
  facet normal 0.156413 0.987692 -0
    outer loop
      vertex 0.519779 2.44537 0
      vertex 0.261321 2.4863 5
      vertex 0.519779 2.44537 5
    endloop
  endfacet
  facet normal 0.156413 0.987692 0
    outer loop
      vertex 0.261321 2.4863 5
      vertex 0.519779 2.44537 0
      vertex 0.261321 2.4863 0
    endloop
  endfacet
  facet normal 0.052354 0.998629 -0
    outer loop
      vertex 0.261321 2.4863 0
      vertex 0 2.5 5
      vertex 0.261321 2.4863 5
    endloop
  endfacet
  facet normal 0.052354 0.998629 0
    outer loop
      vertex 0 2.5 5
      vertex 0.261321 2.4863 0
      vertex 0 2.5 0
    endloop
  endfacet
  facet normal -0.052354 0.998629 0
    outer loop
      vertex 0 2.5 0
      vertex -0.261321 2.4863 5
      vertex 0 2.5 5
    endloop
  endfacet
  facet normal -0.052354 0.998629 0
    outer loop
      vertex -0.261321 2.4863 5
      vertex 0 2.5 0
      vertex -0.261321 2.4863 0
    endloop
  endfacet
  facet normal -0.156413 0.987692 0
    outer loop
      vertex -0.261321 2.4863 0
      vertex -0.519779 2.44537 5
      vertex -0.261321 2.4863 5
    endloop
  endfacet
  facet normal -0.156413 0.987692 0
    outer loop
      vertex -0.519779 2.44537 5
      vertex -0.261321 2.4863 0
      vertex -0.519779 2.44537 0
    endloop
  endfacet
  facet normal -0.258827 0.965924 0
    outer loop
      vertex -0.519779 2.44537 0
      vertex -0.772542 2.37764 5
      vertex -0.519779 2.44537 5
    endloop
  endfacet
  facet normal -0.258827 0.965924 0
    outer loop
      vertex -0.772542 2.37764 5
      vertex -0.519779 2.44537 0
      vertex -0.772542 2.37764 0
    endloop
  endfacet
  facet normal -0.358377 0.933577 0
    outer loop
      vertex -0.772542 2.37764 0
      vertex -1.01684 2.28386 5
      vertex -0.772542 2.37764 5
    endloop
  endfacet
  facet normal -0.358377 0.933577 0
    outer loop
      vertex -1.01684 2.28386 5
      vertex -0.772542 2.37764 0
      vertex -1.01684 2.28386 0
    endloop
  endfacet
  facet normal -0.453988 0.891008 0
    outer loop
      vertex -1.01684 2.28386 0
      vertex -1.25 2.16506 5
      vertex -1.01684 2.28386 5
    endloop
  endfacet
  facet normal -0.453988 0.891008 0
    outer loop
      vertex -1.25 2.16506 5
      vertex -1.01684 2.28386 0
      vertex -1.25 2.16506 0
    endloop
  endfacet
  facet normal -0.544642 0.838669 0
    outer loop
      vertex -1.25 2.16506 0
      vertex -1.46946 2.02254 5
      vertex -1.25 2.16506 5
    endloop
  endfacet
  facet normal -0.544642 0.838669 0
    outer loop
      vertex -1.46946 2.02254 5
      vertex -1.25 2.16506 0
      vertex -1.46946 2.02254 0
    endloop
  endfacet
  facet normal -0.629307 0.777157 0
    outer loop
      vertex -1.46946 2.02254 0
      vertex -1.67283 1.85786 5
      vertex -1.46946 2.02254 5
    endloop
  endfacet
  facet normal -0.629307 0.777157 0
    outer loop
      vertex -1.67283 1.85786 5
      vertex -1.46946 2.02254 0
      vertex -1.67283 1.85786 0
    endloop
  endfacet
  facet normal -0.707107 0.707107 0
    outer loop
      vertex -1.85786 1.67283 0
      vertex -1.67283 1.85786 5
      vertex -1.67283 1.85786 0
    endloop
  endfacet
  facet normal -0.707107 0.707107 0
    outer loop
      vertex -1.67283 1.85786 5
      vertex -1.85786 1.67283 0
      vertex -1.85786 1.67283 5
    endloop
  endfacet
  facet normal -0.777157 0.629307 0
    outer loop
      vertex -2.02254 1.46946 0
      vertex -1.85786 1.67283 5
      vertex -1.85786 1.67283 0
    endloop
  endfacet
  facet normal -0.777157 0.629307 0
    outer loop
      vertex -1.85786 1.67283 5
      vertex -2.02254 1.46946 0
      vertex -2.02254 1.46946 5
    endloop
  endfacet
  facet normal -0.838669 0.544642 0
    outer loop
      vertex -2.16506 1.25 0
      vertex -2.02254 1.46946 5
      vertex -2.02254 1.46946 0
    endloop
  endfacet
  facet normal -0.838669 0.544642 0
    outer loop
      vertex -2.02254 1.46946 5
      vertex -2.16506 1.25 0
      vertex -2.16506 1.25 5
    endloop
  endfacet
  facet normal -0.891008 0.453988 0
    outer loop
      vertex -2.28386 1.01684 0
      vertex -2.16506 1.25 5
      vertex -2.16506 1.25 0
    endloop
  endfacet
  facet normal -0.891008 0.453988 0
    outer loop
      vertex -2.16506 1.25 5
      vertex -2.28386 1.01684 0
      vertex -2.28386 1.01684 5
    endloop
  endfacet
  facet normal -0.933577 0.358377 0
    outer loop
      vertex -2.37764 0.772542 0
      vertex -2.28386 1.01684 5
      vertex -2.28386 1.01684 0
    endloop
  endfacet
  facet normal -0.933577 0.358377 0
    outer loop
      vertex -2.28386 1.01684 5
      vertex -2.37764 0.772542 0
      vertex -2.37764 0.772542 5
    endloop
  endfacet
  facet normal -0.965924 0.258827 0
    outer loop
      vertex -2.44537 0.519779 0
      vertex -2.37764 0.772542 5
      vertex -2.37764 0.772542 0
    endloop
  endfacet
  facet normal -0.965924 0.258827 0
    outer loop
      vertex -2.37764 0.772542 5
      vertex -2.44537 0.519779 0
      vertex -2.44537 0.519779 5
    endloop
  endfacet
  facet normal -0.987692 0.156413 0
    outer loop
      vertex -2.4863 0.261321 0
      vertex -2.44537 0.519779 5
      vertex -2.44537 0.519779 0
    endloop
  endfacet
  facet normal -0.987692 0.156413 0
    outer loop
      vertex -2.44537 0.519779 5
      vertex -2.4863 0.261321 0
      vertex -2.4863 0.261321 5
    endloop
  endfacet
  facet normal -0.998629 0.052354 0
    outer loop
      vertex -2.5 -0 0
      vertex -2.4863 0.261321 5
      vertex -2.4863 0.261321 0
    endloop
  endfacet
  facet normal -0.998629 0.052354 0
    outer loop
      vertex -2.4863 0.261321 5
      vertex -2.5 -0 0
      vertex -2.5 -0 5
    endloop
  endfacet
  facet normal -0.998629 -0.052354 0
    outer loop
      vertex -2.4863 -0.261321 0
      vertex -2.5 -0 5
      vertex -2.5 -0 0
    endloop
  endfacet
  facet normal -0.998629 -0.052354 0
    outer loop
      vertex -2.5 -0 5
      vertex -2.4863 -0.261321 0
      vertex -2.4863 -0.261321 5
    endloop
  endfacet
  facet normal -0.987692 -0.156413 0
    outer loop
      vertex -2.44537 -0.519779 0
      vertex -2.4863 -0.261321 5
      vertex -2.4863 -0.261321 0
    endloop
  endfacet
  facet normal -0.987692 -0.156413 0
    outer loop
      vertex -2.4863 -0.261321 5
      vertex -2.44537 -0.519779 0
      vertex -2.44537 -0.519779 5
    endloop
  endfacet
  facet normal -0.965924 -0.258827 0
    outer loop
      vertex -2.37764 -0.772542 0
      vertex -2.44537 -0.519779 5
      vertex -2.44537 -0.519779 0
    endloop
  endfacet
  facet normal -0.965924 -0.258827 0
    outer loop
      vertex -2.44537 -0.519779 5
      vertex -2.37764 -0.772542 0
      vertex -2.37764 -0.772542 5
    endloop
  endfacet
  facet normal -0.933577 -0.358377 0
    outer loop
      vertex -2.28386 -1.01684 0
      vertex -2.37764 -0.772542 5
      vertex -2.37764 -0.772542 0
    endloop
  endfacet
  facet normal -0.933577 -0.358377 0
    outer loop
      vertex -2.37764 -0.772542 5
      vertex -2.28386 -1.01684 0
      vertex -2.28386 -1.01684 5
    endloop
  endfacet
  facet normal -0.891008 -0.453988 0
    outer loop
      vertex -2.16506 -1.25 0
      vertex -2.28386 -1.01684 5
      vertex -2.28386 -1.01684 0
    endloop
  endfacet
  facet normal -0.891008 -0.453988 0
    outer loop
      vertex -2.28386 -1.01684 5
      vertex -2.16506 -1.25 0
      vertex -2.16506 -1.25 5
    endloop
  endfacet
  facet normal -0.838669 -0.544642 0
    outer loop
      vertex -2.02254 -1.46946 0
      vertex -2.16506 -1.25 5
      vertex -2.16506 -1.25 0
    endloop
  endfacet
  facet normal -0.838669 -0.544642 0
    outer loop
      vertex -2.16506 -1.25 5
      vertex -2.02254 -1.46946 0
      vertex -2.02254 -1.46946 5
    endloop
  endfacet
  facet normal -0.777157 -0.629307 0
    outer loop
      vertex -1.85786 -1.67283 0
      vertex -2.02254 -1.46946 5
      vertex -2.02254 -1.46946 0
    endloop
  endfacet
  facet normal -0.777157 -0.629307 0
    outer loop
      vertex -2.02254 -1.46946 5
      vertex -1.85786 -1.67283 0
      vertex -1.85786 -1.67283 5
    endloop
  endfacet
  facet normal -0.707107 -0.707107 0
    outer loop
      vertex -1.67283 -1.85786 0
      vertex -1.85786 -1.67283 5
      vertex -1.85786 -1.67283 0
    endloop
  endfacet
  facet normal -0.707107 -0.707107 0
    outer loop
      vertex -1.85786 -1.67283 5
      vertex -1.67283 -1.85786 0
      vertex -1.67283 -1.85786 5
    endloop
  endfacet
  facet normal -0.629307 -0.777157 0
    outer loop
      vertex -1.67283 -1.85786 0
      vertex -1.46946 -2.02254 5
      vertex -1.67283 -1.85786 5
    endloop
  endfacet
  facet normal -0.629307 -0.777157 -0
    outer loop
      vertex -1.46946 -2.02254 5
      vertex -1.67283 -1.85786 0
      vertex -1.46946 -2.02254 0
    endloop
  endfacet
  facet normal -0.544642 -0.838669 0
    outer loop
      vertex -1.46946 -2.02254 0
      vertex -1.25 -2.16506 5
      vertex -1.46946 -2.02254 5
    endloop
  endfacet
  facet normal -0.544642 -0.838669 -0
    outer loop
      vertex -1.25 -2.16506 5
      vertex -1.46946 -2.02254 0
      vertex -1.25 -2.16506 0
    endloop
  endfacet
  facet normal -0.453988 -0.891008 0
    outer loop
      vertex -1.25 -2.16506 0
      vertex -1.01684 -2.28386 5
      vertex -1.25 -2.16506 5
    endloop
  endfacet
  facet normal -0.453988 -0.891008 -0
    outer loop
      vertex -1.01684 -2.28386 5
      vertex -1.25 -2.16506 0
      vertex -1.01684 -2.28386 0
    endloop
  endfacet
  facet normal -0.358377 -0.933577 0
    outer loop
      vertex -1.01684 -2.28386 0
      vertex -0.772542 -2.37764 5
      vertex -1.01684 -2.28386 5
    endloop
  endfacet
  facet normal -0.358377 -0.933577 -0
    outer loop
      vertex -0.772542 -2.37764 5
      vertex -1.01684 -2.28386 0
      vertex -0.772542 -2.37764 0
    endloop
  endfacet
  facet normal -0.258827 -0.965924 0
    outer loop
      vertex -0.772542 -2.37764 0
      vertex -0.519779 -2.44537 5
      vertex -0.772542 -2.37764 5
    endloop
  endfacet
  facet normal -0.258827 -0.965924 -0
    outer loop
      vertex -0.519779 -2.44537 5
      vertex -0.772542 -2.37764 0
      vertex -0.519779 -2.44537 0
    endloop
  endfacet
  facet normal -0.156413 -0.987692 0
    outer loop
      vertex -0.519779 -2.44537 0
      vertex -0.261321 -2.4863 5
      vertex -0.519779 -2.44537 5
    endloop
  endfacet
  facet normal -0.156413 -0.987692 -0
    outer loop
      vertex -0.261321 -2.4863 5
      vertex -0.519779 -2.44537 0
      vertex -0.261321 -2.4863 0
    endloop
  endfacet
  facet normal -0.052354 -0.998629 0
    outer loop
      vertex -0.261321 -2.4863 0
      vertex -0 -2.5 5
      vertex -0.261321 -2.4863 5
    endloop
  endfacet
  facet normal -0.052354 -0.998629 -0
    outer loop
      vertex -0 -2.5 5
      vertex -0.261321 -2.4863 0
      vertex -0 -2.5 0
    endloop
  endfacet
  facet normal 0.052354 -0.998629 0
    outer loop
      vertex -0 -2.5 0
      vertex 0.261321 -2.4863 5
      vertex -0 -2.5 5
    endloop
  endfacet
  facet normal 0.052354 -0.998629 0
    outer loop
      vertex 0.261321 -2.4863 5
      vertex -0 -2.5 0
      vertex 0.261321 -2.4863 0
    endloop
  endfacet
  facet normal 0.156413 -0.987692 0
    outer loop
      vertex 0.261321 -2.4863 0
      vertex 0.519779 -2.44537 5
      vertex 0.261321 -2.4863 5
    endloop
  endfacet
  facet normal 0.156413 -0.987692 0
    outer loop
      vertex 0.519779 -2.44537 5
      vertex 0.261321 -2.4863 0
      vertex 0.519779 -2.44537 0
    endloop
  endfacet
  facet normal 0.258827 -0.965924 0
    outer loop
      vertex 0.519779 -2.44537 0
      vertex 0.772542 -2.37764 5
      vertex 0.519779 -2.44537 5
    endloop
  endfacet
  facet normal 0.258827 -0.965924 0
    outer loop
      vertex 0.772542 -2.37764 5
      vertex 0.519779 -2.44537 0
      vertex 0.772542 -2.37764 0
    endloop
  endfacet
  facet normal 0.358377 -0.933577 0
    outer loop
      vertex 0.772542 -2.37764 0
      vertex 1.01684 -2.28386 5
      vertex 0.772542 -2.37764 5
    endloop
  endfacet
  facet normal 0.358377 -0.933577 0
    outer loop
      vertex 1.01684 -2.28386 5
      vertex 0.772542 -2.37764 0
      vertex 1.01684 -2.28386 0
    endloop
  endfacet
  facet normal 0.453988 -0.891008 0
    outer loop
      vertex 1.01684 -2.28386 0
      vertex 1.25 -2.16506 5
      vertex 1.01684 -2.28386 5
    endloop
  endfacet
  facet normal 0.453988 -0.891008 0
    outer loop
      vertex 1.25 -2.16506 5
      vertex 1.01684 -2.28386 0
      vertex 1.25 -2.16506 0
    endloop
  endfacet
  facet normal 0.544642 -0.838669 0
    outer loop
      vertex 1.25 -2.16506 0
      vertex 1.46946 -2.02254 5
      vertex 1.25 -2.16506 5
    endloop
  endfacet
  facet normal 0.544642 -0.838669 0
    outer loop
      vertex 1.46946 -2.02254 5
      vertex 1.25 -2.16506 0
      vertex 1.46946 -2.02254 0
    endloop
  endfacet
  facet normal 0.629307 -0.777157 0
    outer loop
      vertex 1.46946 -2.02254 0
      vertex 1.67283 -1.85786 5
      vertex 1.46946 -2.02254 5
    endloop
  endfacet
  facet normal 0.629307 -0.777157 0
    outer loop
      vertex 1.67283 -1.85786 5
      vertex 1.46946 -2.02254 0
      vertex 1.67283 -1.85786 0
    endloop
  endfacet
  facet normal 0.707107 -0.707107 0
    outer loop
      vertex 1.67283 -1.85786 5
      vertex 1.85786 -1.67283 0
      vertex 1.85786 -1.67283 5
    endloop
  endfacet
  facet normal 0.707107 -0.707107 0
    outer loop
      vertex 1.85786 -1.67283 0
      vertex 1.67283 -1.85786 5
      vertex 1.67283 -1.85786 0
    endloop
  endfacet
  facet normal 0.777157 -0.629307 0
    outer loop
      vertex 1.85786 -1.67283 5
      vertex 2.02254 -1.46946 0
      vertex 2.02254 -1.46946 5
    endloop
  endfacet
  facet normal 0.777157 -0.629307 0
    outer loop
      vertex 2.02254 -1.46946 0
      vertex 1.85786 -1.67283 5
      vertex 1.85786 -1.67283 0
    endloop
  endfacet
  facet normal 0.838669 -0.544642 0
    outer loop
      vertex 2.02254 -1.46946 5
      vertex 2.16506 -1.25 0
      vertex 2.16506 -1.25 5
    endloop
  endfacet
  facet normal 0.838669 -0.544642 0
    outer loop
      vertex 2.16506 -1.25 0
      vertex 2.02254 -1.46946 5
      vertex 2.02254 -1.46946 0
    endloop
  endfacet
  facet normal 0.891008 -0.453988 0
    outer loop
      vertex 2.16506 -1.25 5
      vertex 2.28386 -1.01684 0
      vertex 2.28386 -1.01684 5
    endloop
  endfacet
  facet normal 0.891008 -0.453988 0
    outer loop
      vertex 2.28386 -1.01684 0
      vertex 2.16506 -1.25 5
      vertex 2.16506 -1.25 0
    endloop
  endfacet
  facet normal 0.933577 -0.358377 0
    outer loop
      vertex 2.28386 -1.01684 5
      vertex 2.37764 -0.772542 0
      vertex 2.37764 -0.772542 5
    endloop
  endfacet
  facet normal 0.933577 -0.358377 0
    outer loop
      vertex 2.37764 -0.772542 0
      vertex 2.28386 -1.01684 5
      vertex 2.28386 -1.01684 0
    endloop
  endfacet
  facet normal 0.965924 -0.258827 0
    outer loop
      vertex 2.37764 -0.772542 5
      vertex 2.44537 -0.519779 0
      vertex 2.44537 -0.519779 5
    endloop
  endfacet
  facet normal 0.965924 -0.258827 0
    outer loop
      vertex 2.44537 -0.519779 0
      vertex 2.37764 -0.772542 5
      vertex 2.37764 -0.772542 0
    endloop
  endfacet
  facet normal 0.987692 -0.156413 0
    outer loop
      vertex 2.44537 -0.519779 5
      vertex 2.4863 -0.261321 0
      vertex 2.4863 -0.261321 5
    endloop
  endfacet
  facet normal 0.987692 -0.156413 0
    outer loop
      vertex 2.4863 -0.261321 0
      vertex 2.44537 -0.519779 5
      vertex 2.44537 -0.519779 0
    endloop
  endfacet
  facet normal 0.998629 -0.052354 0
    outer loop
      vertex 2.4863 -0.261321 5
      vertex 2.5 0 0
      vertex 2.5 0 5
    endloop
  endfacet
  facet normal 0.998629 -0.052354 0
    outer loop
      vertex 2.5 0 0
      vertex 2.4863 -0.261321 5
      vertex 2.4863 -0.261321 0
    endloop
  endfacet
  facet normal 0 0 -1
    outer loop
      vertex 2.4863 -0.261321 0
      vertex 2.4863 0.261321 0
      vertex 2.5 0 0
    endloop
  endfacet
  facet normal 0 0 -1
    outer loop
      vertex 2.44537 -0.519779 0
      vertex 2.4863 0.261321 0
      vertex 2.4863 -0.261321 0
    endloop
  endfacet
  facet normal 0 0 -1
    outer loop
      vertex 2.44537 -0.519779 0
      vertex 2.44537 0.519779 0
      vertex 2.4863 0.261321 0
    endloop
  endfacet
  facet normal 0 0 -1
    outer loop
      vertex 2.37764 -0.772542 0
      vertex 2.44537 0.519779 0
      vertex 2.44537 -0.519779 0
    endloop
  endfacet
  facet normal 0 0 -1
    outer loop
      vertex 2.37764 -0.772542 0
      vertex 2.37764 0.772542 0
      vertex 2.44537 0.519779 0
    endloop
  endfacet
  facet normal 0 0 -1
    outer loop
      vertex 2.28386 -1.01684 0
      vertex 2.37764 0.772542 0
      vertex 2.37764 -0.772542 0
    endloop
  endfacet
  facet normal 0 0 -1
    outer loop
      vertex 2.28386 -1.01684 0
      vertex 2.28386 1.01684 0
      vertex 2.37764 0.772542 0
    endloop
  endfacet
  facet normal 0 0 -1
    outer loop
      vertex 2.16506 -1.25 0
      vertex 2.28386 1.01684 0
      vertex 2.28386 -1.01684 0
    endloop
  endfacet
  facet normal 0 0 -1
    outer loop
      vertex 2.16506 -1.25 0
      vertex 2.16506 1.25 0
      vertex 2.28386 1.01684 0
    endloop
  endfacet
  facet normal 0 0 -1
    outer loop
      vertex 2.02254 -1.46946 0
      vertex 2.16506 1.25 0
      vertex 2.16506 -1.25 0
    endloop
  endfacet
  facet normal 0 0 -1
    outer loop
      vertex 2.02254 -1.46946 0
      vertex 2.02254 1.46946 0
      vertex 2.16506 1.25 0
    endloop
  endfacet
  facet normal 0 0 -1
    outer loop
      vertex 1.85786 -1.67283 0
      vertex 2.02254 1.46946 0
      vertex 2.02254 -1.46946 0
    endloop
  endfacet
  facet normal 0 0 -1
    outer loop
      vertex 1.85786 -1.67283 0
      vertex 1.85786 1.67283 0
      vertex 2.02254 1.46946 0
    endloop
  endfacet
  facet normal 0 0 -1
    outer loop
      vertex 1.67283 -1.85786 0
      vertex 1.85786 1.67283 0
      vertex 1.85786 -1.67283 0
    endloop
  endfacet
  facet normal 0 0 -1
    outer loop
      vertex 1.67283 -1.85786 0
      vertex 1.67283 1.85786 0
      vertex 1.85786 1.67283 0
    endloop
  endfacet
  facet normal 0 0 -1
    outer loop
      vertex 1.46946 -2.02254 0
      vertex 1.67283 1.85786 0
      vertex 1.67283 -1.85786 0
    endloop
  endfacet
  facet normal 0 0 -1
    outer loop
      vertex 1.46946 -2.02254 0
      vertex 1.46946 2.02254 0
      vertex 1.67283 1.85786 0
    endloop
  endfacet
  facet normal 0 0 -1
    outer loop
      vertex 1.25 -2.16506 0
      vertex 1.46946 2.02254 0
      vertex 1.46946 -2.02254 0
    endloop
  endfacet
  facet normal 0 0 -1
    outer loop
      vertex 1.25 -2.16506 0
      vertex 1.25 2.16506 0
      vertex 1.46946 2.02254 0
    endloop
  endfacet
  facet normal 0 0 -1
    outer loop
      vertex 1.01684 -2.28386 0
      vertex 1.25 2.16506 0
      vertex 1.25 -2.16506 0
    endloop
  endfacet
  facet normal 0 0 -1
    outer loop
      vertex 1.01684 -2.28386 0
      vertex 1.01684 2.28386 0
      vertex 1.25 2.16506 0
    endloop
  endfacet
  facet normal 0 0 -1
    outer loop
      vertex 0.772542 -2.37764 0
      vertex 1.01684 2.28386 0
      vertex 1.01684 -2.28386 0
    endloop
  endfacet
  facet normal 0 0 -1
    outer loop
      vertex 0.772542 -2.37764 0
      vertex 0.772542 2.37764 0
      vertex 1.01684 2.28386 0
    endloop
  endfacet
  facet normal 0 0 -1
    outer loop
      vertex 0.519779 -2.44537 0
      vertex 0.772542 2.37764 0
      vertex 0.772542 -2.37764 0
    endloop
  endfacet
  facet normal 0 0 -1
    outer loop
      vertex 0.519779 -2.44537 0
      vertex 0.519779 2.44537 0
      vertex 0.772542 2.37764 0
    endloop
  endfacet
  facet normal 0 0 -1
    outer loop
      vertex 0.261321 -2.4863 0
      vertex 0.519779 2.44537 0
      vertex 0.519779 -2.44537 0
    endloop
  endfacet
  facet normal 0 0 -1
    outer loop
      vertex 0.261321 -2.4863 0
      vertex 0.261321 2.4863 0
      vertex 0.519779 2.44537 0
    endloop
  endfacet
  facet normal 0 0 -1
    outer loop
      vertex -0 -2.5 0
      vertex 0.261321 2.4863 0
      vertex 0.261321 -2.4863 0
    endloop
  endfacet
  facet normal 0 0 -1
    outer loop
      vertex -0 -2.5 0
      vertex 0 2.5 0
      vertex 0.261321 2.4863 0
    endloop
  endfacet
  facet normal 0 0 -1
    outer loop
      vertex -0.261321 -2.4863 0
      vertex 0 2.5 0
      vertex -0 -2.5 0
    endloop
  endfacet
  facet normal 0 0 -1
    outer loop
      vertex -0.261321 -2.4863 0
      vertex -0.261321 2.4863 0
      vertex 0 2.5 0
    endloop
  endfacet
  facet normal 0 0 -1
    outer loop
      vertex -0.519779 -2.44537 0
      vertex -0.261321 2.4863 0
      vertex -0.261321 -2.4863 0
    endloop
  endfacet
  facet normal 0 0 -1
    outer loop
      vertex -0.519779 -2.44537 0
      vertex -0.519779 2.44537 0
      vertex -0.261321 2.4863 0
    endloop
  endfacet
  facet normal 0 0 -1
    outer loop
      vertex -0.772542 -2.37764 0
      vertex -0.519779 2.44537 0
      vertex -0.519779 -2.44537 0
    endloop
  endfacet
  facet normal 0 0 -1
    outer loop
      vertex -0.772542 -2.37764 0
      vertex -0.772542 2.37764 0
      vertex -0.519779 2.44537 0
    endloop
  endfacet
  facet normal 0 0 -1
    outer loop
      vertex -1.01684 -2.28386 0
      vertex -0.772542 2.37764 0
      vertex -0.772542 -2.37764 0
    endloop
  endfacet
  facet normal 0 0 -1
    outer loop
      vertex -1.01684 -2.28386 0
      vertex -1.01684 2.28386 0
      vertex -0.772542 2.37764 0
    endloop
  endfacet
  facet normal 0 0 -1
    outer loop
      vertex -1.25 -2.16506 0
      vertex -1.01684 2.28386 0
      vertex -1.01684 -2.28386 0
    endloop
  endfacet
  facet normal 0 0 -1
    outer loop
      vertex -1.25 -2.16506 0
      vertex -1.25 2.16506 0
      vertex -1.01684 2.28386 0
    endloop
  endfacet
  facet normal 0 0 -1
    outer loop
      vertex -1.46946 -2.02254 0
      vertex -1.25 2.16506 0
      vertex -1.25 -2.16506 0
    endloop
  endfacet
  facet normal 0 0 -1
    outer loop
      vertex -1.46946 -2.02254 0
      vertex -1.46946 2.02254 0
      vertex -1.25 2.16506 0
    endloop
  endfacet
  facet normal 0 0 -1
    outer loop
      vertex -1.67283 -1.85786 0
      vertex -1.46946 2.02254 0
      vertex -1.46946 -2.02254 0
    endloop
  endfacet
  facet normal 0 0 -1
    outer loop
      vertex -1.67283 -1.85786 0
      vertex -1.67283 1.85786 0
      vertex -1.46946 2.02254 0
    endloop
  endfacet
  facet normal 0 0 -1
    outer loop
      vertex -1.85786 -1.67283 0
      vertex -1.67283 1.85786 0
      vertex -1.67283 -1.85786 0
    endloop
  endfacet
  facet normal 0 0 -1
    outer loop
      vertex -1.85786 -1.67283 0
      vertex -1.85786 1.67283 0
      vertex -1.67283 1.85786 0
    endloop
  endfacet
  facet normal 0 0 -1
    outer loop
      vertex -2.02254 -1.46946 0
      vertex -1.85786 1.67283 0
      vertex -1.85786 -1.67283 0
    endloop
  endfacet
  facet normal 0 0 -1
    outer loop
      vertex -2.02254 -1.46946 0
      vertex -2.02254 1.46946 0
      vertex -1.85786 1.67283 0
    endloop
  endfacet
  facet normal 0 0 -1
    outer loop
      vertex -2.16506 -1.25 0
      vertex -2.02254 1.46946 0
      vertex -2.02254 -1.46946 0
    endloop
  endfacet
  facet normal 0 0 -1
    outer loop
      vertex -2.16506 -1.25 0
      vertex -2.16506 1.25 0
      vertex -2.02254 1.46946 0
    endloop
  endfacet
  facet normal 0 0 -1
    outer loop
      vertex -2.28386 -1.01684 0
      vertex -2.16506 1.25 0
      vertex -2.16506 -1.25 0
    endloop
  endfacet
  facet normal 0 0 -1
    outer loop
      vertex -2.28386 -1.01684 0
      vertex -2.28386 1.01684 0
      vertex -2.16506 1.25 0
    endloop
  endfacet
  facet normal 0 0 -1
    outer loop
      vertex -2.37764 -0.772542 0
      vertex -2.28386 1.01684 0
      vertex -2.28386 -1.01684 0
    endloop
  endfacet
  facet normal 0 0 -1
    outer loop
      vertex -2.37764 -0.772542 0
      vertex -2.37764 0.772542 0
      vertex -2.28386 1.01684 0
    endloop
  endfacet
  facet normal 0 0 -1
    outer loop
      vertex -2.44537 -0.519779 0
      vertex -2.37764 0.772542 0
      vertex -2.37764 -0.772542 0
    endloop
  endfacet
  facet normal 0 0 -1
    outer loop
      vertex -2.44537 -0.519779 0
      vertex -2.44537 0.519779 0
      vertex -2.37764 0.772542 0
    endloop
  endfacet
  facet normal 0 0 -1
    outer loop
      vertex -2.4863 -0.261321 0
      vertex -2.44537 0.519779 0
      vertex -2.44537 -0.519779 0
    endloop
  endfacet
  facet normal 0 0 -1
    outer loop
      vertex -2.4863 -0.261321 0
      vertex -2.4863 0.261321 0
      vertex -2.44537 0.519779 0
    endloop
  endfacet
  facet normal 0 -0 -1
    outer loop
      vertex -2.4863 0.261321 0
      vertex -2.4863 -0.261321 0
      vertex -2.5 -0 0
    endloop
  endfacet
  facet normal 0 0 1
    outer loop
      vertex 2.4863 0.261321 5
      vertex 2.4863 -0.261321 5
      vertex 2.5 0 5
    endloop
  endfacet
  facet normal 0 0 1
    outer loop
      vertex 2.44537 0.519779 5
      vertex 2.4863 -0.261321 5
      vertex 2.4863 0.261321 5
    endloop
  endfacet
  facet normal 0 0 1
    outer loop
      vertex 2.44537 0.519779 5
      vertex 2.44537 -0.519779 5
      vertex 2.4863 -0.261321 5
    endloop
  endfacet
  facet normal 0 0 1
    outer loop
      vertex 2.37764 0.772542 5
      vertex 2.44537 -0.519779 5
      vertex 2.44537 0.519779 5
    endloop
  endfacet
  facet normal 0 0 1
    outer loop
      vertex 2.37764 0.772542 5
      vertex 2.37764 -0.772542 5
      vertex 2.44537 -0.519779 5
    endloop
  endfacet
  facet normal 0 0 1
    outer loop
      vertex 2.28386 1.01684 5
      vertex 2.37764 -0.772542 5
      vertex 2.37764 0.772542 5
    endloop
  endfacet
  facet normal 0 0 1
    outer loop
      vertex 2.28386 1.01684 5
      vertex 2.28386 -1.01684 5
      vertex 2.37764 -0.772542 5
    endloop
  endfacet
  facet normal 0 0 1
    outer loop
      vertex 2.16506 1.25 5
      vertex 2.28386 -1.01684 5
      vertex 2.28386 1.01684 5
    endloop
  endfacet
  facet normal 0 0 1
    outer loop
      vertex 2.16506 1.25 5
      vertex 2.16506 -1.25 5
      vertex 2.28386 -1.01684 5
    endloop
  endfacet
  facet normal 0 0 1
    outer loop
      vertex 2.02254 1.46946 5
      vertex 2.16506 -1.25 5
      vertex 2.16506 1.25 5
    endloop
  endfacet
  facet normal 0 0 1
    outer loop
      vertex 2.02254 1.46946 5
      vertex 2.02254 -1.46946 5
      vertex 2.16506 -1.25 5
    endloop
  endfacet
  facet normal 0 0 1
    outer loop
      vertex 1.85786 1.67283 5
      vertex 2.02254 -1.46946 5
      vertex 2.02254 1.46946 5
    endloop
  endfacet
  facet normal 0 0 1
    outer loop
      vertex 1.85786 1.67283 5
      vertex 1.85786 -1.67283 5
      vertex 2.02254 -1.46946 5
    endloop
  endfacet
  facet normal 0 0 1
    outer loop
      vertex 1.67283 1.85786 5
      vertex 1.85786 -1.67283 5
      vertex 1.85786 1.67283 5
    endloop
  endfacet
  facet normal 0 0 1
    outer loop
      vertex 1.67283 1.85786 5
      vertex 1.67283 -1.85786 5
      vertex 1.85786 -1.67283 5
    endloop
  endfacet
  facet normal 0 0 1
    outer loop
      vertex 1.46946 2.02254 5
      vertex 1.67283 -1.85786 5
      vertex 1.67283 1.85786 5
    endloop
  endfacet
  facet normal 0 0 1
    outer loop
      vertex 1.46946 2.02254 5
      vertex 1.46946 -2.02254 5
      vertex 1.67283 -1.85786 5
    endloop
  endfacet
  facet normal 0 0 1
    outer loop
      vertex 1.25 2.16506 5
      vertex 1.46946 -2.02254 5
      vertex 1.46946 2.02254 5
    endloop
  endfacet
  facet normal 0 0 1
    outer loop
      vertex 1.25 2.16506 5
      vertex 1.25 -2.16506 5
      vertex 1.46946 -2.02254 5
    endloop
  endfacet
  facet normal 0 0 1
    outer loop
      vertex 1.01684 2.28386 5
      vertex 1.25 -2.16506 5
      vertex 1.25 2.16506 5
    endloop
  endfacet
  facet normal 0 0 1
    outer loop
      vertex 1.01684 2.28386 5
      vertex 1.01684 -2.28386 5
      vertex 1.25 -2.16506 5
    endloop
  endfacet
  facet normal 0 0 1
    outer loop
      vertex 0.772542 2.37764 5
      vertex 1.01684 -2.28386 5
      vertex 1.01684 2.28386 5
    endloop
  endfacet
  facet normal 0 0 1
    outer loop
      vertex 0.772542 2.37764 5
      vertex 0.772542 -2.37764 5
      vertex 1.01684 -2.28386 5
    endloop
  endfacet
  facet normal 0 0 1
    outer loop
      vertex 0.519779 2.44537 5
      vertex 0.772542 -2.37764 5
      vertex 0.772542 2.37764 5
    endloop
  endfacet
  facet normal 0 0 1
    outer loop
      vertex 0.519779 2.44537 5
      vertex 0.519779 -2.44537 5
      vertex 0.772542 -2.37764 5
    endloop
  endfacet
  facet normal 0 0 1
    outer loop
      vertex 0.261321 2.4863 5
      vertex 0.519779 -2.44537 5
      vertex 0.519779 2.44537 5
    endloop
  endfacet
  facet normal 0 0 1
    outer loop
      vertex 0.261321 2.4863 5
      vertex 0.261321 -2.4863 5
      vertex 0.519779 -2.44537 5
    endloop
  endfacet
  facet normal 0 0 1
    outer loop
      vertex 0 2.5 5
      vertex 0.261321 -2.4863 5
      vertex 0.261321 2.4863 5
    endloop
  endfacet
  facet normal 0 0 1
    outer loop
      vertex 0 2.5 5
      vertex -0 -2.5 5
      vertex 0.261321 -2.4863 5
    endloop
  endfacet
  facet normal -0 0 1
    outer loop
      vertex -0.261321 2.4863 5
      vertex -0 -2.5 5
      vertex 0 2.5 5
    endloop
  endfacet
  facet normal 0 0 1
    outer loop
      vertex -0.261321 2.4863 5
      vertex -0.261321 -2.4863 5
      vertex -0 -2.5 5
    endloop
  endfacet
  facet normal -0 0 1
    outer loop
      vertex -0.519779 2.44537 5
      vertex -0.261321 -2.4863 5
      vertex -0.261321 2.4863 5
    endloop
  endfacet
  facet normal 0 0 1
    outer loop
      vertex -0.519779 2.44537 5
      vertex -0.519779 -2.44537 5
      vertex -0.261321 -2.4863 5
    endloop
  endfacet
  facet normal -0 0 1
    outer loop
      vertex -0.772542 2.37764 5
      vertex -0.519779 -2.44537 5
      vertex -0.519779 2.44537 5
    endloop
  endfacet
  facet normal 0 0 1
    outer loop
      vertex -0.772542 2.37764 5
      vertex -0.772542 -2.37764 5
      vertex -0.519779 -2.44537 5
    endloop
  endfacet
  facet normal -0 0 1
    outer loop
      vertex -1.01684 2.28386 5
      vertex -0.772542 -2.37764 5
      vertex -0.772542 2.37764 5
    endloop
  endfacet
  facet normal 0 0 1
    outer loop
      vertex -1.01684 2.28386 5
      vertex -1.01684 -2.28386 5
      vertex -0.772542 -2.37764 5
    endloop
  endfacet
  facet normal -0 0 1
    outer loop
      vertex -1.25 2.16506 5
      vertex -1.01684 -2.28386 5
      vertex -1.01684 2.28386 5
    endloop
  endfacet
  facet normal 0 0 1
    outer loop
      vertex -1.25 2.16506 5
      vertex -1.25 -2.16506 5
      vertex -1.01684 -2.28386 5
    endloop
  endfacet
  facet normal -0 0 1
    outer loop
      vertex -1.46946 2.02254 5
      vertex -1.25 -2.16506 5
      vertex -1.25 2.16506 5
    endloop
  endfacet
  facet normal 0 0 1
    outer loop
      vertex -1.46946 2.02254 5
      vertex -1.46946 -2.02254 5
      vertex -1.25 -2.16506 5
    endloop
  endfacet
  facet normal -0 0 1
    outer loop
      vertex -1.67283 1.85786 5
      vertex -1.46946 -2.02254 5
      vertex -1.46946 2.02254 5
    endloop
  endfacet
  facet normal 0 0 1
    outer loop
      vertex -1.67283 1.85786 5
      vertex -1.67283 -1.85786 5
      vertex -1.46946 -2.02254 5
    endloop
  endfacet
  facet normal -0 0 1
    outer loop
      vertex -1.85786 1.67283 5
      vertex -1.67283 -1.85786 5
      vertex -1.67283 1.85786 5
    endloop
  endfacet
  facet normal 0 0 1
    outer loop
      vertex -1.85786 1.67283 5
      vertex -1.85786 -1.67283 5
      vertex -1.67283 -1.85786 5
    endloop
  endfacet
  facet normal -0 0 1
    outer loop
      vertex -2.02254 1.46946 5
      vertex -1.85786 -1.67283 5
      vertex -1.85786 1.67283 5
    endloop
  endfacet
  facet normal 0 0 1
    outer loop
      vertex -2.02254 1.46946 5
      vertex -2.02254 -1.46946 5
      vertex -1.85786 -1.67283 5
    endloop
  endfacet
  facet normal -0 0 1
    outer loop
      vertex -2.16506 1.25 5
      vertex -2.02254 -1.46946 5
      vertex -2.02254 1.46946 5
    endloop
  endfacet
  facet normal 0 0 1
    outer loop
      vertex -2.16506 1.25 5
      vertex -2.16506 -1.25 5
      vertex -2.02254 -1.46946 5
    endloop
  endfacet
  facet normal -0 0 1
    outer loop
      vertex -2.28386 1.01684 5
      vertex -2.16506 -1.25 5
      vertex -2.16506 1.25 5
    endloop
  endfacet
  facet normal 0 0 1
    outer loop
      vertex -2.28386 1.01684 5
      vertex -2.28386 -1.01684 5
      vertex -2.16506 -1.25 5
    endloop
  endfacet
  facet normal -0 0 1
    outer loop
      vertex -2.37764 0.772542 5
      vertex -2.28386 -1.01684 5
      vertex -2.28386 1.01684 5
    endloop
  endfacet
  facet normal 0 0 1
    outer loop
      vertex -2.37764 0.772542 5
      vertex -2.37764 -0.772542 5
      vertex -2.28386 -1.01684 5
    endloop
  endfacet
  facet normal -0 0 1
    outer loop
      vertex -2.44537 0.519779 5
      vertex -2.37764 -0.772542 5
      vertex -2.37764 0.772542 5
    endloop
  endfacet
  facet normal 0 0 1
    outer loop
      vertex -2.44537 0.519779 5
      vertex -2.44537 -0.519779 5
      vertex -2.37764 -0.772542 5
    endloop
  endfacet
  facet normal -0 0 1
    outer loop
      vertex -2.4863 0.261321 5
      vertex -2.44537 -0.519779 5
      vertex -2.44537 0.519779 5
    endloop
  endfacet
  facet normal 0 0 1
    outer loop
      vertex -2.4863 0.261321 5
      vertex -2.4863 -0.261321 5
      vertex -2.44537 -0.519779 5
    endloop
  endfacet
  facet normal 0 -0 1
    outer loop
      vertex -2.4863 -0.261321 5
      vertex -2.4863 0.261321 5
      vertex -2.5 -0 5
    endloop
  endfacet
endsolid OpenSCAD_Model
